<svg width="45" height="33" viewBox="0 0 45 33" fill="none" xmlns="http://www.w3.org/2000/svg">
  <path d="M34.5757 20.126C32.5518 20.352 31.671 18.1483 31.4836 17.0182M35.419 22.3862C34.482 22.8571 32.2707 23.5163 30.9214 22.3862M40.1978 26.632C41.2285 26.4437 43.4024 26.8581 43.8521 27.7621C44.4144 28.8922 43.2899 30.5874 41.8844 32M39.0734 28.1169C38.7414 28.2064 38.3679 28.2777 37.949 28.3272C33.1702 28.8922 34.0135 24.9289 34.2946 24.3639C34.5757 23.7988 35.419 22.3862 37.1057 22.3862C38.2301 22.3862 39.5647 22.7327 40.1978 23.2418C41.4801 24.2728 42.5284 27.1851 39.0734 28.1169ZM39.0734 28.1169C38.7923 30.0223 37.949 30.8699 37.3868 31.435M36.5435 14.4755C36.3561 14.5697 35.8688 14.9841 35.419 15.8881C34.8568 17.0182 35.419 17.8658 35.7002 18.1483C35.9813 18.4309 37.1057 18.9959 38.2301 17.8658C39.3545 16.7357 39.3545 15.3231 39.0734 14.758C38.7923 14.193 37.949 13.3454 36.5435 14.4755ZM36.8246 19.2784C36.2624 19.2784 35.7002 19.8435 35.7001 20.4085C35.7001 20.9736 35.9812 21.5386 36.8246 21.5386C37.6679 21.5386 37.949 20.9736 37.949 20.4085C37.949 19.9565 37.3868 19.2784 36.8246 19.2784Z" stroke="#2B241E" stroke-width="1.5" stroke-linejoin="round"/>
  <path d="M2.81104 16.4612C2.81104 7.64647 7.6835 3.55929 10.1197 2.61755C11.9001 1.95832 16.1353 0.75289 18.8339 1.20493C30.3592 3.74764 32.8891 13.636 28.1104 22.3942C23.3316 28.3272 16.8662 28.8922 12.6497 27.4796C8.4331 26.067 3.37324 23.8068 2.81104 16.4612Z" stroke="#2B241E" stroke-width="1.5"/>
  <path d="M12.821 6.34494C8.70364 7.18529 2.42618 13.5777 1.22403 18.3101M13.0658 8.43452C8.03131 10.4427 4.24035 14.0691 2.16186 20.3177M13.3514 10.8724C10.7628 11.7672 5.81409 15.5071 3.79272 22.2432M13.637 13.3102C9.64206 15.1954 6.50333 18.3915 5.42358 24.1688M14.5749 15.3178C10.6819 17.0263 7.30869 21.3405 7.30869 25.5809M15.5127 17.3254C10.6819 21.3405 9.83862 24.2698 9.55752 26.4016M16.4913 19.6812C12.9308 22.1117 11.9257 25.5687 11.8063 27.5486M17.3883 21.3405C14.5749 23.8068 13.6121 25.4716 13.3514 28.0447M18.2854 22.9998C16.304 24.9369 15.5127 26.6321 15.5127 28.3884M19.4881 24.2698C18.5302 25.0894 17.3883 26.4617 17.7095 28.3884M20.3444 25.5809C19.8076 25.9975 19.115 26.9146 19.4881 27.7622" stroke="#2B241E" stroke-width="1.5"/>
  <path d="M36.2024 18.6074C36.9375 18.7795 38.0667 18.6441 38.6634 16.2084C38.7994 15.5033 38.7013 13.3865 37.3563 13.4473C36.0113 13.5082 35.0078 15.0738 34.922 16.2273C34.8361 17.3807 35.4673 18.4352 36.2024 18.6074Z" stroke="#2B241E" stroke-width="1.5"/>
  <path d="M36.8245 21.4476C39.0733 21.4477 37.9489 19.1875 36.8245 19.1875C35.7001 19.1874 34.5757 21.4476 36.8245 21.4476Z" stroke="#2B241E" stroke-width="1.5"/>
  <path d="M40.0082 23.0545C38.0405 22.2069 35.2295 22.4895 34.3862 23.9021C33.5428 25.3147 33.4866 26.9533 34.3862 27.8574C35.5106 28.9875 38.3216 28.9875 40.0082 27.8574C41.6948 26.7273 41.976 23.9021 40.0082 23.0545Z" stroke="#2B241E" stroke-width="1.5"/>
  <path d="M29.797 17.7748C29.2348 21.1651 23.8939 32.1835 9.83868 26.8156C-4.2165 21.4477 5.55308 -0.714229 18.834 1.10595C31.2026 2.8011 30.3592 14.3846 29.797 17.7748Z" stroke="#2B241E" stroke-width="1.5"/>
</svg>